<svg xmlns="http://www.w3.org/2000/svg" viewBox="0 0 1336 601.35"><defs><style>.cls-1,.cls-4{fill:#808487;}.cls-2{fill:#edb8ba;}.cls-3{fill:#fae506;}.cls-4{font-size:64.77px;font-family:Tungsten-Book, Tungsten Book;}</style></defs><title>Asset 1</title><g id="Layer_2" data-name="Layer 2"><g id="Layer_1-2" data-name="Layer 1"><ellipse class="cls-1" cx="668" cy="239" rx="668" ry="239"/><ellipse class="cls-2" cx="668" cy="239" rx="604" ry="211"/><path class="cls-1" d="M225.42,276v51.08c0,29-15.09,44.11-44.88,44.11H128.69V100.37h51.46c29.79,0,44.5,15.09,44.5,44.11v46c0,25.15-10.45,37.54-27.09,42.56C214.2,238.12,225.42,250.88,225.42,276ZM179.76,114.68H143.39V226.12h31c23.21,0,35.59-10.83,35.59-33.28V143.7Q209.94,114.69,179.76,114.68ZM143.39,356.9h37.15c19.73,0,29.79-9.67,29.79-29V274.1c0-22.44-12.38-33.66-35.21-33.66H143.39Z"/><path class="cls-1" d="M580.79,384.26H566.47l-10.06-57.65H491.79l-9.67,57.65H467.41l48.76-272h15.47Zm-86.29-72h59.2l-29.79-171.8Z"/><path class="cls-1" d="M764,288v42.18c0,28.24-15.09,42.94-44.5,42.94H711c-29.41,0-44.5-14.7-44.5-42.56V275.65h15.09V331c0,18.57,10.06,27.86,29.79,27.86h7.36q30.16,0,30.18-27.86V288.8c0-16.63-5-24.76-17.42-34.05l-41.78-32.11c-17-12.77-22.83-25.93-22.83-46.82V141.38c0-28.24,14.7-42.95,44.49-42.95h7.36c29.4,0,44.49,14.71,44.49,42.57v46.81H748.13v-47.2c0-18.57-9.67-27.86-29.79-27.86h-6.58C692,112.75,682,122,682,140.61v34.82c0,16.25,5,24.38,17.41,34l41.79,31.73C757.8,254,764,266.36,764,288Z"/><path class="cls-1" d="M859.86,371.22H844.77V100.37h15.09Z"/><path class="cls-1" d="M1044.35,100.37v14.31H981.67V226.12h60.75v14.32H981.67V356.9h63.46v14.32H966.58V100.37Z"/><path class="cls-1" d="M363.14,261s28.53.51,28.53-54.51,6.11-104.44-35.15-104.44h-42.8V378.71H329V261h18.34l34.13,117.69h17.83Zm-5.91-12.77H330.06V116h25.13c15.54,0,20.15,20.21,20.15,20.21v32.35c0-.14,0-4.16,0,38.21C376.08,248.54,357.23,248.25,357.23,248.25Z"/><path class="cls-1" d="M1171.14,261s28.53.51,28.53-54.51,6.11-104.44-35.15-104.44h-42.8V378.71H1137V261h18.35l34.13,117.69h17.83Zm-5.91-12.77h-27.18V116h25.14c15.54,0,20.14,20.21,20.14,20.21v32.35c0-.14,0-4.16,0,38.21C1184.08,248.54,1165.23,248.25,1165.23,248.25Z"/><circle class="cls-3" cx="853.42" cy="67.9" r="17.29" transform="translate(0.21 138.33) rotate(-9.27)"/><text class="cls-4" transform="translate(470.06 585.15)">GRILL • ROOFTOP</text></g></g></svg>
