<?xml version="1.0" encoding="UTF-8" standalone="no"?>
<svg
   xmlns:dc="http://purl.org/dc/elements/1.1/"
   xmlns:cc="http://creativecommons.org/ns#"
   xmlns:rdf="http://www.w3.org/1999/02/22-rdf-syntax-ns#"
   xmlns:svg="http://www.w3.org/2000/svg"
   xmlns="http://www.w3.org/2000/svg"
   xmlns:sodipodi="http://sodipodi.sourceforge.net/DTD/sodipodi-0.dtd"
   xmlns:inkscape="http://www.inkscape.org/namespaces/inkscape"
   version="1.1"
   id="svg2"
   viewBox="0 0 400.55243 16.5"
   height="16.5"
   width="400.55243"
   inkscape:version="0.91 r13725"
   sodipodi:docname="section-border-3.svg">
  <sodipodi:namedview
     pagecolor="#ffffff"
     bordercolor="#b16363"
     borderopacity="1"
     objecttolerance="10"
     gridtolerance="10"
     guidetolerance="10"
     inkscape:pageopacity="0"
     inkscape:pageshadow="2"
     inkscape:window-width="1865"
     inkscape:window-height="1056"
     id="namedview233"
     showgrid="false"
     fit-margin-top="0"
     fit-margin-left="0"
     fit-margin-right="0"
     fit-margin-bottom="0"
     inkscape:zoom="1.4142136"
     inkscape:cx="136.85236"
     inkscape:cy="-154.95913"
     inkscape:window-x="1079"
     inkscape:window-y="24"
     inkscape:window-maximized="1"
     inkscape:current-layer="svg2" />
  <defs
     id="defs4">
    <clipPath
       clipPathUnits="userSpaceOnUse"
       id="clipPath4185">
      <path
         d="M 0,980 1400,980 1400,0 0,0 0,980 Z"
         id="path4187"
         inkscape:connector-curvature="0" />
    </clipPath>
    <clipPath
       clipPathUnits="userSpaceOnUse"
       id="clipPath18">
      <path
         d="M 0,780 1096,780 1096,0 0,0 0,780 Z"
         id="path20"
         inkscape:connector-curvature="0" />
    </clipPath>
    <clipPath
       clipPathUnits="userSpaceOnUse"
       id="clipPath16">
      <path
         d="M 0,982 1402,982 1402,0 0,0 0,982 Z"
         id="path18"
         inkscape:connector-curvature="0" />
    </clipPath>
    <clipPath
       clipPathUnits="userSpaceOnUse"
       id="clipPath16-0">
      <path
         d="M 0,982 1402,982 1402,0 0,0 0,982 Z"
         id="path18-9"
         inkscape:connector-curvature="0" />
    </clipPath>
    <clipPath
       clipPathUnits="userSpaceOnUse"
       id="clipPath18-7">
      <path
         d="M 0,780 1096,780 1096,0 0,0 0,780 Z"
         id="path20-0"
         inkscape:connector-curvature="0" />
    </clipPath>
    <clipPath
       id="clipPath22389"
       clipPathUnits="userSpaceOnUse">
      <rect
         ry="1.8981841"
         rx="1.0079759"
         transform="scale(1,-1)"
         y="-731.61426"
         x="5.8427396"
         height="127.68327"
         width="297.38892"
         id="rect22391"
         style="fill:#0000ff;fill-rule:evenodd;stroke:#000000;stroke-width:0.80000001px;stroke-linecap:butt;stroke-linejoin:miter;stroke-opacity:1" />
    </clipPath>
    <clipPath
       id="clipPath22389-5"
       clipPathUnits="userSpaceOnUse">
      <rect
         ry="1.8981841"
         rx="1.0079759"
         transform="scale(1,-1)"
         y="-731.61426"
         x="5.8427396"
         height="127.68327"
         width="297.38892"
         id="rect22391-3"
         style="fill:#0000ff;fill-rule:evenodd;stroke:#000000;stroke-width:0.80000001px;stroke-linecap:butt;stroke-linejoin:miter;stroke-opacity:1" />
    </clipPath>
    <clipPath
       clipPathUnits="userSpaceOnUse"
       id="clipPath18-7-9">
      <path
         d="M 0,780 1096,780 1096,0 0,0 0,780 Z"
         id="path20-0-4"
         inkscape:connector-curvature="0" />
    </clipPath>
    <clipPath
       clipPathUnits="userSpaceOnUse"
       id="clipPath18-9">
      <path
         d="M 0,780 1096,780 1096,0 0,0 0,780 Z"
         id="path20-8"
         inkscape:connector-curvature="0" />
    </clipPath>
    <clipPath
       clipPathUnits="userSpaceOnUse"
       id="clipPath18-8">
      <path
         d="M 0,780 1096,780 1096,0 0,0 0,780 Z"
         id="path20-5"
         inkscape:connector-curvature="0" />
    </clipPath>
    <clipPath
       clipPathUnits="userSpaceOnUse"
       id="clipPath46">
      <path
         d="M 0,980 1400,980 1400,0 0,0 0,980 Z"
         id="path48"
         inkscape:connector-curvature="0" />
    </clipPath>
    <clipPath
       clipPathUnits="userSpaceOnUse"
       id="clipPath46-6">
      <path
         d="M 0,980 1400,980 1400,0 0,0 0,980 Z"
         id="path48-9"
         inkscape:connector-curvature="0" />
    </clipPath>
    <clipPath
       clipPathUnits="userSpaceOnUse"
       id="clipPath18-3">
      <path
         d="M 0,780 1096,780 1096,0 0,0 0,780 Z"
         id="path20-1"
         inkscape:connector-curvature="0" />
    </clipPath>
    <clipPath
       clipPathUnits="userSpaceOnUse"
       id="clipPath18-3-9">
      <path
         d="M 0,780 1096,780 1096,0 0,0 0,780 Z"
         id="path20-1-4"
         inkscape:connector-curvature="0" />
    </clipPath>
    <clipPath
       id="clipPath24121"
       clipPathUnits="userSpaceOnUse">
      <rect
         transform="scale(1,-1)"
         ry="1.0854703"
         rx="6.6811748"
         y="-639.16711"
         x="-56.065018"
         height="67.252571"
         width="259.01035"
         id="rect24123"
         style="fill:#0000ff;fill-rule:evenodd;stroke:#000000;stroke-width:0.32102063px;stroke-linecap:butt;stroke-linejoin:miter;stroke-opacity:1" />
    </clipPath>
    <clipPath
       id="clipPath24121-3"
       clipPathUnits="userSpaceOnUse">
      <rect
         transform="scale(1,-1)"
         ry="1.0854703"
         rx="6.6811748"
         y="-639.16711"
         x="-56.065018"
         height="67.252571"
         width="259.01035"
         id="rect24123-7"
         style="fill:#0000ff;fill-rule:evenodd;stroke:#000000;stroke-width:0.32102063px;stroke-linecap:butt;stroke-linejoin:miter;stroke-opacity:1" />
    </clipPath>
    <clipPath
       clipPathUnits="userSpaceOnUse"
       id="clipPath18-3-9-9">
      <path
         d="M 0,780 1096,780 1096,0 0,0 0,780 Z"
         id="path20-1-4-0"
         inkscape:connector-curvature="0" />
    </clipPath>
    <clipPath
       clipPathUnits="userSpaceOnUse"
       id="clipPath18-3-8">
      <path
         d="M 0,780 1096,780 1096,0 0,0 0,780 Z"
         id="path20-1-7"
         inkscape:connector-curvature="0" />
    </clipPath>
    <clipPath
       clipPathUnits="userSpaceOnUse"
       id="clipPath38">
      <path
         d="M 0,980 1400,980 1400,0 0,0 0,980 Z"
         id="path40"
         inkscape:connector-curvature="0" />
    </clipPath>
    <clipPath
       clipPathUnits="userSpaceOnUse"
       id="clipPath18-0">
      <path
         d="M 0,780 1096,780 1096,0 0,0 0,780 Z"
         id="path20-2"
         inkscape:connector-curvature="0" />
    </clipPath>
    <clipPath
       clipPathUnits="userSpaceOnUse"
       id="clipPath18-0-3">
      <path
         d="M 0,780 1096,780 1096,0 0,0 0,780 Z"
         id="path20-2-5"
         inkscape:connector-curvature="0" />
    </clipPath>
    <clipPath
       clipPathUnits="userSpaceOnUse"
       id="clipPath18-0-9">
      <path
         d="M 0,780 1096,780 1096,0 0,0 0,780 Z"
         id="path20-2-1"
         inkscape:connector-curvature="0" />
    </clipPath>
    <clipPath
       clipPathUnits="userSpaceOnUse"
       id="clipPath7418">
      <path
         d="M 0,980 1400,980 1400,0 0,0 0,980 Z"
         id="path7420"
         inkscape:connector-curvature="0" />
    </clipPath>
    <clipPath
       clipPathUnits="userSpaceOnUse"
       id="clipPath7782">
      <path
         d="m 0,485.035 648.988,0 L 648.988,0 0,0 0,485.035 Z"
         id="path7784"
         inkscape:connector-curvature="0" />
    </clipPath>
    <clipPath
       clipPathUnits="userSpaceOnUse"
       id="clipPath8080">
      <path
         d="m 0,485.035 648.988,0 L 648.988,0 0,0 0,485.035 Z"
         id="path8082"
         inkscape:connector-curvature="0" />
    </clipPath>
    <clipPath
       clipPathUnits="userSpaceOnUse"
       id="clipPath8354">
      <path
         d="m 0,485.035 648.988,0 L 648.988,0 0,0 0,485.035 Z"
         id="path8356"
         inkscape:connector-curvature="0" />
    </clipPath>
    <clipPath
       clipPathUnits="userSpaceOnUse"
       id="clipPath8652">
      <path
         d="m 0,485.035 648.988,0 L 648.988,0 0,0 0,485.035 Z"
         id="path8654-6"
         inkscape:connector-curvature="0" />
    </clipPath>
    <clipPath
       clipPathUnits="userSpaceOnUse"
       id="clipPath8927">
      <path
         d="m 0,485.035 648.988,0 L 648.988,0 0,0 0,485.035 Z"
         id="path8929"
         inkscape:connector-curvature="0" />
    </clipPath>
    <clipPath
       clipPathUnits="userSpaceOnUse"
       id="clipPath9225">
      <path
         d="m 0,485.035 648.988,0 L 648.988,0 0,0 0,485.035 Z"
         id="path9227"
         inkscape:connector-curvature="0" />
    </clipPath>
    <clipPath
       clipPathUnits="userSpaceOnUse"
       id="clipPath8927-9">
      <path
         d="m 0,485.035 648.988,0 L 648.988,0 0,0 0,485.035 Z"
         id="path8929-1"
         inkscape:connector-curvature="0" />
    </clipPath>
    <clipPath
       clipPathUnits="userSpaceOnUse"
       id="clipPath9225-7">
      <path
         d="m 0,485.035 648.988,0 L 648.988,0 0,0 0,485.035 Z"
         id="path9227-7"
         inkscape:connector-curvature="0" />
    </clipPath>
    <clipPath
       clipPathUnits="userSpaceOnUse"
       id="clipPath8927-0">
      <path
         d="m 0,485.035 648.988,0 L 648.988,0 0,0 0,485.035 Z"
         id="path8929-3"
         inkscape:connector-curvature="0" />
    </clipPath>
    <clipPath
       clipPathUnits="userSpaceOnUse"
       id="clipPath9225-4">
      <path
         d="m 0,485.035 648.988,0 L 648.988,0 0,0 0,485.035 Z"
         id="path9227-0"
         inkscape:connector-curvature="0" />
    </clipPath>
    <clipPath
       clipPathUnits="userSpaceOnUse"
       id="clipPath10798">
      <path
         d="m 0,485.035 648.988,0 L 648.988,0 0,0 0,485.035 Z"
         id="path10800"
         inkscape:connector-curvature="0" />
    </clipPath>
    <clipPath
       clipPathUnits="userSpaceOnUse"
       id="clipPath11096">
      <path
         d="m 0,485.035 648.988,0 L 648.988,0 0,0 0,485.035 Z"
         id="path11098"
         inkscape:connector-curvature="0" />
    </clipPath>
    <clipPath
       clipPathUnits="userSpaceOnUse"
       id="clipPath37476">
      <path
         d="M 0,980 1400,980 1400,0 0,0 0,980 Z"
         id="path37478"
         inkscape:connector-curvature="0" />
    </clipPath>
    <clipPath
       clipPathUnits="userSpaceOnUse"
       id="clipPath42543">
      <path
         d="m 0,485.036 648.989,0 L 648.989,0 0,0 0,485.036 Z"
         id="path42545"
         inkscape:connector-curvature="0" />
    </clipPath>
    <clipPath
       clipPathUnits="userSpaceOnUse"
       id="clipPath42551">
      <path
         d="m -4.88281e-4,485.035 648.988488281,0 0,-485.035976562 -648.988488281,0 0,485.035976562 z"
         id="path42553"
         inkscape:connector-curvature="0" />
    </clipPath>
    <clipPath
       clipPathUnits="userSpaceOnUse"
       id="clipPath42555">
      <path
         d="m 648.988,485.035 -648.989,0 0,-485.036 648.989,0 0,485.036 z"
         id="path42557"
         inkscape:connector-curvature="0" />
    </clipPath>
    <linearGradient
       x1="0"
       y1="0"
       x2="1"
       y2="0"
       gradientUnits="userSpaceOnUse"
       gradientTransform="matrix(-1.53e-5,485.03613,-485.03613,-1.53e-5,420.46276,-91.703814)"
       spreadMethod="pad"
       id="linearGradient42559">
      <stop
         style="stop-opacity:1;stop-color:#e7f0f9"
         offset="0"
         id="stop42561" />
      <stop
         style="stop-opacity:1;stop-color:#c8ddf0"
         offset="0.5"
         id="stop42563" />
      <stop
         style="stop-opacity:1;stop-color:#89bde2"
         offset="1"
         id="stop42565" />
    </linearGradient>
    <clipPath
       clipPathUnits="userSpaceOnUse"
       id="clipPath42585">
      <path
         d="m 0,485.036 648.989,0 L 648.989,0 0,0 0,485.036 Z"
         id="path42587"
         inkscape:connector-curvature="0" />
    </clipPath>
    <clipPath
       clipPathUnits="userSpaceOnUse"
       id="clipPath42845">
      <path
         d="m 0,485.036 648.989,0 L 648.989,0 0,0 0,485.036 Z"
         id="path42847"
         inkscape:connector-curvature="0" />
    </clipPath>
    <clipPath
       clipPathUnits="userSpaceOnUse"
       id="clipPath42931">
      <path
         d="m 438.158,18.1318 25.639,0 0,-2.8144 -25.639,0 0,2.8144 z"
         id="path42933"
         inkscape:connector-curvature="0" />
    </clipPath>
    <clipPath
       clipPathUnits="userSpaceOnUse"
       id="clipPath42947">
      <path
         d="m 448.133,29.662 -0.982,-5.626 c 0,0 1.49,-1.273 7.443,-0.145 l 0,0 c -0.291,1.778 -0.144,3.519 0.908,4.283 l 0,0 c 1.054,0.764 1.162,2.178 1.162,2.178 l 0,0 c 0,0 -7.079,0.364 -7.225,0.401 l 0,0 c -0.002,0.001 -0.004,0.001 -0.007,0.001 l 0,0 c -0.171,0 -1.299,-1.092 -1.299,-1.092"
         id="path42949"
         inkscape:connector-curvature="0" />
    </clipPath>
    <linearGradient
       x1="0"
       y1="0"
       x2="1"
       y2="0"
       gradientUnits="userSpaceOnUse"
       gradientTransform="matrix(11.237732,13.299667,13.299667,-11.237732,946.27979,-57.78681)"
       spreadMethod="pad"
       id="linearGradient42955">
      <stop
         style="stop-opacity:1;stop-color:#f38120"
         offset="0"
         id="stop42957" />
      <stop
         style="stop-opacity:1;stop-color:#692b12"
         offset="1"
         id="stop42959" />
    </linearGradient>
    <clipPath
       clipPathUnits="userSpaceOnUse"
       id="clipPath42967">
      <path
         d="m 0,485.036 648.989,0 L 648.989,0 0,0 0,485.036 Z"
         id="path42969"
         inkscape:connector-curvature="0" />
    </clipPath>
    <clipPath
       clipPathUnits="userSpaceOnUse"
       id="clipPath42983">
      <path
         d="m 461.113,31.52 0,-0.62 1.65,1.05 -1.236,-9.657 -0.796,-0.075 -0.182,-0.724 1.308,0.363 1.559,11.002 -2.303,-1.339 z"
         id="path42985"
         inkscape:connector-curvature="0" />
    </clipPath>
    <linearGradient
       x1="0"
       y1="0"
       x2="1"
       y2="0"
       gradientUnits="userSpaceOnUse"
       gradientTransform="matrix(2.8671875,0,0,-2.8671875,962.17237,-49.446966)"
       spreadMethod="pad"
       id="linearGradient42991">
      <stop
         style="stop-opacity:1;stop-color:#ffffff"
         offset="0"
         id="stop42993" />
      <stop
         style="stop-opacity:1;stop-color:#525354"
         offset="1"
         id="stop42995" />
    </linearGradient>
    <clipPath
       clipPathUnits="userSpaceOnUse"
       id="clipPath43003">
      <path
         d="m 461.857,21.857 c 0,0 0.687,-0.145 6.46,-0.799 l 0,0 c -0.108,2.466 0.545,10.491 0.545,10.491 l 0,0 -5.446,1.31 -1.559,-11.002 z"
         id="path43005"
         inkscape:connector-curvature="0" />
    </clipPath>
    <linearGradient
       x1="0"
       y1="0"
       x2="1"
       y2="0"
       gradientUnits="userSpaceOnUse"
       gradientTransform="matrix(7.0058594,0,0,-7.0058594,963.47999,-49.66474)"
       spreadMethod="pad"
       id="linearGradient43011">
      <stop
         style="stop-opacity:1;stop-color:#ffffff"
         offset="0"
         id="stop43013" />
      <stop
         style="stop-opacity:1;stop-color:#525354"
         offset="1"
         id="stop43015" />
    </linearGradient>
    <clipPath
       clipPathUnits="userSpaceOnUse"
       id="clipPath43023">
      <path
         d="m 0,485.036 648.989,0 L 648.989,0 0,0 0,485.036 Z"
         id="path43025"
         inkscape:connector-curvature="0" />
    </clipPath>
    <clipPath
       clipPathUnits="userSpaceOnUse"
       id="clipPath43055">
      <path
         d="m 467.857,23.8184 1.043,0 0,-4.2403 -1.043,0 0,4.2403 z"
         id="path43057"
         inkscape:connector-curvature="0" />
    </clipPath>
    <clipPath
       clipPathUnits="userSpaceOnUse"
       id="clipPath43071">
      <path
         d="m 465.559,20.5547 1.199,0 0,-1.0606 -1.199,0 0,1.0606 z"
         id="path43073"
         inkscape:connector-curvature="0" />
    </clipPath>
    <clipPath
       clipPathUnits="userSpaceOnUse"
       id="clipPath43087">
      <path
         d="m 464.473,20.9004 1.339,0 0,-1.2959 -1.339,0 0,1.2959 z"
         id="path43089"
         inkscape:connector-curvature="0" />
    </clipPath>
    <clipPath
       clipPathUnits="userSpaceOnUse"
       id="clipPath43107">
      <path
         d="m 441.85,31.514 c -1.088,-0.909 -2.03,-3.412 -2.867,-3.887 l 0,0 c -0.833,-0.471 -2.649,-1.342 -3.012,-1.775 l 0,0 c -0.366,-0.438 -1.235,-1.346 -1.016,-2.36 l 0,0 c 0.507,0.762 1.451,1.232 1.813,0.47 l 0,0 c 0.364,-0.762 0.727,-0.908 1.308,-0.725 l 0,0 c 0.581,0.181 0.942,-0.145 1.088,-0.618 l 0,0 c 0.147,-0.472 -0.106,-0.726 0.727,-0.543 l 0,0 c 0.834,0.18 1.381,0 1.852,-0.509 l 0,0 c 0.472,-0.509 2.358,-0.436 3.559,-0.073 l 0,0 c -0.219,2.794 0.143,9.912 0.398,10.419 l 0,0 c 0.255,0.509 0.34,1.273 0.34,1.273 l 0,0 c 0,0 -3.099,-0.764 -4.19,-1.672"
         id="path43109"
         inkscape:connector-curvature="0" />
    </clipPath>
    <linearGradient
       x1="0"
       y1="0"
       x2="1"
       y2="0"
       gradientUnits="userSpaceOnUse"
       gradientTransform="matrix(4.2270813,0.618576,0.618576,-4.2270813,942.77491,-49.979193)"
       spreadMethod="pad"
       id="linearGradient43115">
      <stop
         style="stop-opacity:1;stop-color:#f38120"
         offset="0"
         id="stop43117" />
      <stop
         style="stop-opacity:1;stop-color:#692b12"
         offset="1"
         id="stop43119" />
    </linearGradient>
    <clipPath
       clipPathUnits="userSpaceOnUse"
       id="clipPath43127">
      <path
         d="m 0,485.036 648.989,0 L 648.989,0 0,0 0,485.036 Z"
         id="path43129"
         inkscape:connector-curvature="0" />
    </clipPath>
    <clipPath
       clipPathUnits="userSpaceOnUse"
       id="clipPath43151">
      <path
         d="m 444.597,46.4551 16.462,0 0,-30.6787 -16.462,0 0,30.6787 z"
         id="path43153"
         inkscape:connector-curvature="0" />
    </clipPath>
    <clipPath
       clipPathUnits="userSpaceOnUse"
       id="clipPath43179">
      <path
         d="m 452.501,34.6602 4.89,0 0,-1.5948 -4.89,0 0,1.5948 z"
         id="path43181"
         inkscape:connector-curvature="0" />
    </clipPath>
    <clipPath
       clipPathUnits="userSpaceOnUse"
       id="clipPath43199">
      <path
         d="m 437.69,43.5029 2.068,0 0,-1.3623 -2.068,0 0,1.3623 z"
         id="path43201"
         inkscape:connector-curvature="0" />
    </clipPath>
    <clipPath
       clipPathUnits="userSpaceOnUse"
       id="clipPath43215">
      <path
         d="m 436.72,44.8721 1.29,0 0,-1.9043 -1.29,0 0,1.9043 z"
         id="path43217"
         inkscape:connector-curvature="0" />
    </clipPath>
    <clipPath
       clipPathUnits="userSpaceOnUse"
       id="clipPath43231">
      <path
         d="m 437.787,45.6006 0.629,0 0,-1.4453 -0.629,0 0,1.4453 z"
         id="path43233"
         inkscape:connector-curvature="0" />
    </clipPath>
    <clipPath
       clipPathUnits="userSpaceOnUse"
       id="clipPath43247">
      <path
         d="m 436.151,44.1855 1.929,0 0,-2.3359 -1.929,0 0,2.3359 z"
         id="path43249"
         inkscape:connector-curvature="0" />
    </clipPath>
    <clipPath
       clipPathUnits="userSpaceOnUse"
       id="clipPath43263">
      <path
         d="m 437.636,45.6572 1.734,0 0,-2.4209 -1.734,0 0,2.4209 z"
         id="path43265"
         inkscape:connector-curvature="0" />
    </clipPath>
    <clipPath
       clipPathUnits="userSpaceOnUse"
       id="clipPath43279">
      <path
         d="m 458.517,30.46 c -1.38,-0.071 -1.853,-0.108 -1.853,-0.108 l 0,0 c 0,0 0.872,-0.254 0.906,-1.634 l 0,0 c 0.039,-1.378 -0.108,-2.723 -0.108,-2.723 l 0,0 c 0,0 0.255,-1.16 -1.596,-1.271 l 0,0 c -1.852,-0.105 -7.188,-0.323 -7.188,-0.323 l 0,0 c 0,0 -0.255,-1.238 1.234,-1.091 l 0,0 c 1.488,0.145 8.822,0.761 8.822,0.761 l 0,0 c 0,0 1.126,0.035 1.126,1.199 l 0,0 c 0,1.163 0.073,4.246 0.073,4.246 l 0,0 c 0,0 -0.034,0.948 -1.275,0.948 l 0,0 c -0.045,0 -0.092,-10e-4 -0.141,-0.004"
         id="path43281"
         inkscape:connector-curvature="0" />
    </clipPath>
    <linearGradient
       x1="0"
       y1="0"
       x2="1"
       y2="0"
       gradientUnits="userSpaceOnUse"
       gradientTransform="matrix(-0.8248596,-6.5989685,-6.5989685,0.8248596,956.45459,-47.341497)"
       spreadMethod="pad"
       id="linearGradient43287">
      <stop
         style="stop-opacity:1;stop-color:#353435"
         offset="0"
         id="stop43289" />
      <stop
         style="stop-opacity:1;stop-color:#525354"
         offset="1"
         id="stop43291" />
    </linearGradient>
    <clipPath
       clipPathUnits="userSpaceOnUse"
       id="clipPath43299">
      <path
         d="m 0,485.036 648.989,0 L 648.989,0 0,0 0,485.036 Z"
         id="path43301"
         inkscape:connector-curvature="0" />
    </clipPath>
    <clipPath
       clipPathUnits="userSpaceOnUse"
       id="clipPath43307">
      <path
         d="m 449.023,48.5029 10.213,0 0,-4.2519 -10.213,0 0,4.2519 z"
         id="path43309"
         inkscape:connector-curvature="0" />
    </clipPath>
    <clipPath
       clipPathUnits="userSpaceOnUse"
       id="clipPath43323">
      <path
         d="m 455.491,35.3105 5.799,0 0,-6.3457 -5.799,0 0,6.3457 z"
         id="path43325"
         inkscape:connector-curvature="0" />
    </clipPath>
    <clipPath
       clipPathUnits="userSpaceOnUse"
       id="clipPath43339">
      <path
         d="m 437.652,44.2256 7.968,0 0,-14.6475 -7.968,0 0,14.6475 z"
         id="path43341"
         inkscape:connector-curvature="0" />
    </clipPath>
    <clipPath
       clipPathUnits="userSpaceOnUse"
       id="clipPath43355">
      <path
         d="m 448.619,40.8594 13.406,0 0,-4.5713 -13.406,0 0,4.5713 z"
         id="path43357"
         inkscape:connector-curvature="0" />
    </clipPath>
    <clipPath
       clipPathUnits="userSpaceOnUse"
       id="clipPath43407">
      <path
         d="m 449.668,21.2187 9.534,0 0,-4.3632 -9.534,0 0,4.3632 z"
         id="path43409"
         inkscape:connector-curvature="0" />
    </clipPath>
    <clipPath
       clipPathUnits="userSpaceOnUse"
       id="clipPath43880">
      <path
         d="m 2896.06,6305.09 0,804.86 c -10.25,0 -20.23,0 -29.93,0 0,50.6 0,98.42 0,136.39 187.11,0 1109.39,0 1199.12,0 97.69,0 270.75,0 578.58,0 222.81,0 624.29,0 974.83,0 371.15,0 652.67,0 993.6,0 261.25,0 468.24,0 553.37,0 99.8,0 1184.3,0.33 1298.52,0.33 l 0,-136.72 c -48.47,0 -104.59,0 -173.58,0 0,-159.07 0,-318.17 0,-477.26 0,-118.91 0,-100.73 0,-219.66 0,-17.96 0,-62.87 0,-107.65 -387.76,-0.07 -1173.78,-0.28 -1257.23,-0.28 -171.22,0 -550.41,0 -659.18,0 -192.08,0 -535.39,0 -755.5,0 -661.24,0 -326.58,0 -819.45,0 -97.69,0 -279.61,0 -621.51,0 -86.21,0 -1010.02,-0.01 -1281.64,-0.01"
         id="path43882"
         inkscape:connector-curvature="0" />
    </clipPath>
    <clipPath
       clipPathUnits="userSpaceOnUse"
       id="clipPath43892">
      <path
         d="m 2896.06,6199.02 -1115.4,0 c 20.15,34.56 106.21,169.37 131.4,214.19 83.78,149.08 117.27,203.69 117.27,221.25 0,30.6 -155.92,319.54 -248.67,475.49 67.81,0 66.22,0 116.59,0 212.33,0 347.21,0 434.66,0 206.43,0 274.63,0 534.22,0 0,-147.76 0,-319.25 0,-338.32 0,-17.37 0,-246.32 0,-466.54 l 0,0 c 8.82,0 18.83,0 29.93,0 l 0,-106.07"
         id="path43894"
         inkscape:connector-curvature="0" />
    </clipPath>
    <clipPath
       clipPathUnits="userSpaceOnUse"
       id="clipPath43904">
      <path
         d="m 2866.13,6305.09 0,0 c 0,220.22 0,449.17 0,466.54 0,19.07 0,190.56 0,338.32 9.7,0 19.68,0 29.93,0 l 0,-804.86 c -11.1,0 -21.11,0 -29.93,0"
         id="path43906"
         inkscape:connector-curvature="0" />
    </clipPath>
    <clipPath
       clipPathUnits="userSpaceOnUse"
       id="clipPath43916">
      <path
         d="m 9405.94,6199.02 -1115.37,0 c 0,17.79 0,62.01 0,106.36 75.86,0.01 136.45,0.02 173.58,0.02 l 0,804.55 c 151.46,0 228.32,0 390.58,0 87.41,0 222.29,0 434.64,0 50.36,0 48.74,0 116.57,0 l 0,0 c -92.75,-155.95 -248.68,-444.89 -248.68,-475.49 0,-17.56 11.65,-45.99 95.44,-195.07 25.16,-44.8 133.06,-205.81 153.24,-240.37"
         id="path43918"
         inkscape:connector-curvature="0" />
    </clipPath>
    <clipPath
       clipPathUnits="userSpaceOnUse"
       id="clipPath43928">
      <path
         d="m 8290.57,6305.38 c 0,44.78 0,89.69 0,107.65 0,118.93 0,100.75 0,219.66 0,159.09 0,318.19 0,477.26 68.99,0 125.11,0 173.58,0 l 0,-804.55 c -37.13,0 -97.72,-0.01 -173.58,-0.02"
         id="path43930"
         inkscape:connector-curvature="0" />
    </clipPath>
    <clipPath
       clipPathUnits="userSpaceOnUse"
       id="clipPath43940">
      <path
         d="m 9375.61,6288.01 -1154.91,0 0,911.26 1154.91,0 -285.71,-455.63 285.71,-455.63 z"
         id="path43942"
         inkscape:connector-curvature="0" />
    </clipPath>
    <linearGradient
       x1="0"
       y1="0"
       x2="1"
       y2="0"
       gradientUnits="userSpaceOnUse"
       gradientTransform="matrix(1154.91,0,0,-1154.91,11579.619,9985.2632)"
       spreadMethod="pad"
       id="linearGradient43944">
      <stop
         style="stop-opacity:1;stop-color:#b9b098"
         offset="0"
         id="stop43946" />
      <stop
         style="stop-opacity:1;stop-color:#dacdb0"
         offset="1"
         id="stop43948" />
    </linearGradient>
    <clipPath
       clipPathUnits="userSpaceOnUse"
       id="clipPath43956">
      <path
         d="m 2098.73,6744.15 -285.72,455.63 1154.92,0 0,-911.27 -1154.92,0 285.72,455.64 z"
         id="path43958"
         inkscape:connector-curvature="0" />
    </clipPath>
    <linearGradient
       x1="0"
       y1="0"
       x2="1"
       y2="0"
       gradientUnits="userSpaceOnUse"
       gradientTransform="matrix(1154.91,0,0,-1154.91,5171.9288,9985.7732)"
       spreadMethod="pad"
       id="linearGradient43960">
      <stop
         style="stop-opacity:1;stop-color:#dacdb0"
         offset="0"
         id="stop43962" />
      <stop
         style="stop-opacity:1;stop-color:#b9b098"
         offset="1"
         id="stop43964" />
    </linearGradient>
    <clipPath
       clipPathUnits="userSpaceOnUse"
       id="clipPath43974">
      <path
         d="m 2679.07,6468.51 5831.51,0 0,911.262 -5831.51,0 0,-911.262 z"
         id="path43976"
         inkscape:connector-curvature="0" />
    </clipPath>
    <linearGradient
       x1="0"
       y1="0"
       x2="1"
       y2="0"
       gradientUnits="userSpaceOnUse"
       gradientTransform="matrix(0,-949.738,-949.738,0,8953.7388,10638.793)"
       spreadMethod="pad"
       id="linearGradient43978">
      <stop
         style="stop-opacity:1;stop-color:#d4c9ac"
         offset="0"
         id="stop43980" />
      <stop
         style="stop-opacity:1;stop-color:#cfc3a7"
         offset="1"
         id="stop43982" />
    </linearGradient>
    <clipPath
       clipPathUnits="userSpaceOnUse"
       id="clipPath44201">
      <path
         d="M 0.001,0 1096,0 l 0,780 -1095.999,0 0,-780 z"
         id="path44203"
         inkscape:connector-curvature="0" />
    </clipPath>
    <radialGradient
       fx="0"
       fy="0"
       cx="0"
       cy="0"
       r="1"
       gradientUnits="userSpaceOnUse"
       gradientTransform="matrix(475.60699,0,0,-475.60699,-353.78842,1427.5102)"
       spreadMethod="pad"
       id="radialGradient44209">
      <stop
         style="stop-opacity:1;stop-color:#ffffff"
         offset="0"
         id="stop44211" />
      <stop
         style="stop-opacity:1;stop-color:#ffffff"
         offset="0.7387349"
         id="stop44213" />
      <stop
         style="stop-opacity:1;stop-color:#e4e5e6"
         offset="1"
         id="stop44215" />
    </radialGradient>
    <clipPath
       clipPathUnits="userSpaceOnUse"
       id="clipPath44223">
      <path
         d="M 0,780 1096,780 1096,0 0,0 0,780 Z"
         id="path44225"
         inkscape:connector-curvature="0" />
    </clipPath>
    <clipPath
       clipPathUnits="userSpaceOnUse"
       id="clipPath13537">
      <path
         d="M 0,980 1400,980 1400,0 0,0 0,980 Z"
         id="path13539"
         inkscape:connector-curvature="0" />
    </clipPath>
    <clipPath
       clipPathUnits="userSpaceOnUse"
       id="clipPath15942">
      <path
         d="M 0,980 1400,980 1400,0 0,0 0,980 Z"
         id="path15944"
         inkscape:connector-curvature="0" />
    </clipPath>
    <clipPath
       clipPathUnits="userSpaceOnUse"
       id="clipPath17792">
      <path
         d="m 0,485.035 648.988,0 L 648.988,0 0,0 0,485.035 Z"
         id="path17794"
         inkscape:connector-curvature="0" />
    </clipPath>
    <clipPath
       clipPathUnits="userSpaceOnUse"
       id="clipPath18090">
      <path
         d="m 0,485.035 648.988,0 L 648.988,0 0,0 0,485.035 Z"
         id="path18092"
         inkscape:connector-curvature="0" />
    </clipPath>
    <clipPath
       clipPathUnits="userSpaceOnUse"
       id="clipPath6416">
      <path
         d="M 0,980 1400,980 1400,0 0,0 0,980 Z"
         id="path6418"
         inkscape:connector-curvature="0" />
    </clipPath>
    <clipPath
       id="clipPath7391"
       clipPathUnits="userSpaceOnUse">
      <circle
         r="110.48442"
         cy="-1189.8168"
         cx="527.21277"
         id="circle7393"
         style="color:#000000;clip-rule:nonzero;display:inline;overflow:visible;visibility:visible;opacity:1;isolation:auto;mix-blend-mode:normal;color-interpolation:sRGB;color-interpolation-filters:linearRGB;solid-color:#000000;solid-opacity:1;fill:#80b3ff;fill-opacity:1;fill-rule:evenodd;stroke:#000000;stroke-width:1.01374924px;stroke-linecap:butt;stroke-linejoin:miter;stroke-miterlimit:4;stroke-dasharray:none;stroke-dashoffset:0;stroke-opacity:1;color-rendering:auto;image-rendering:auto;shape-rendering:auto;text-rendering:auto;enable-background:accumulate" />
    </clipPath>
    <clipPath
       id="clipPath7391-6"
       clipPathUnits="userSpaceOnUse">
      <circle
         r="110.48442"
         cy="-1189.8168"
         cx="527.21277"
         id="circle7393-7"
         style="color:#000000;clip-rule:nonzero;display:inline;overflow:visible;visibility:visible;opacity:1;isolation:auto;mix-blend-mode:normal;color-interpolation:sRGB;color-interpolation-filters:linearRGB;solid-color:#000000;solid-opacity:1;fill:#80b3ff;fill-opacity:1;fill-rule:evenodd;stroke:#000000;stroke-width:1.01374924px;stroke-linecap:butt;stroke-linejoin:miter;stroke-miterlimit:4;stroke-dasharray:none;stroke-dashoffset:0;stroke-opacity:1;color-rendering:auto;image-rendering:auto;shape-rendering:auto;text-rendering:auto;enable-background:accumulate" />
    </clipPath>
    <clipPath
       id="clipPath7391-6-4"
       clipPathUnits="userSpaceOnUse">
      <circle
         r="110.48442"
         cy="-1189.8168"
         cx="527.21277"
         id="circle7393-7-0"
         style="color:#000000;clip-rule:nonzero;display:inline;overflow:visible;visibility:visible;opacity:1;isolation:auto;mix-blend-mode:normal;color-interpolation:sRGB;color-interpolation-filters:linearRGB;solid-color:#000000;solid-opacity:1;fill:#80b3ff;fill-opacity:1;fill-rule:evenodd;stroke:#000000;stroke-width:1.01374924px;stroke-linecap:butt;stroke-linejoin:miter;stroke-miterlimit:4;stroke-dasharray:none;stroke-dashoffset:0;stroke-opacity:1;color-rendering:auto;image-rendering:auto;shape-rendering:auto;text-rendering:auto;enable-background:accumulate" />
    </clipPath>
    <clipPath
       id="clipPath7391-6-47"
       clipPathUnits="userSpaceOnUse">
      <circle
         r="110.48442"
         cy="-1189.8168"
         cx="527.21277"
         id="circle7393-7-4"
         style="color:#000000;clip-rule:nonzero;display:inline;overflow:visible;visibility:visible;opacity:1;isolation:auto;mix-blend-mode:normal;color-interpolation:sRGB;color-interpolation-filters:linearRGB;solid-color:#000000;solid-opacity:1;fill:#80b3ff;fill-opacity:1;fill-rule:evenodd;stroke:#000000;stroke-width:1.01374924px;stroke-linecap:butt;stroke-linejoin:miter;stroke-miterlimit:4;stroke-dasharray:none;stroke-dashoffset:0;stroke-opacity:1;color-rendering:auto;image-rendering:auto;shape-rendering:auto;text-rendering:auto;enable-background:accumulate" />
    </clipPath>
    <clipPath
       id="clipPath7391-6-5"
       clipPathUnits="userSpaceOnUse">
      <circle
         r="110.48442"
         cy="-1189.8168"
         cx="527.21277"
         id="circle7393-7-8"
         style="color:#000000;clip-rule:nonzero;display:inline;overflow:visible;visibility:visible;opacity:1;isolation:auto;mix-blend-mode:normal;color-interpolation:sRGB;color-interpolation-filters:linearRGB;solid-color:#000000;solid-opacity:1;fill:#80b3ff;fill-opacity:1;fill-rule:evenodd;stroke:#000000;stroke-width:1.01374924px;stroke-linecap:butt;stroke-linejoin:miter;stroke-miterlimit:4;stroke-dasharray:none;stroke-dashoffset:0;stroke-opacity:1;color-rendering:auto;image-rendering:auto;shape-rendering:auto;text-rendering:auto;enable-background:accumulate" />
    </clipPath>
    <clipPath
       clipPathUnits="userSpaceOnUse"
       id="clipPath18-8-9">
      <path
         d="M 0,780 1096,780 1096,0 0,0 0,780 Z"
         id="path20-5-6"
         inkscape:connector-curvature="0" />
    </clipPath>
    <clipPath
       clipPathUnits="userSpaceOnUse"
       id="clipPath18-8-9-4">
      <path
         d="M 0,780 1096,780 1096,0 0,0 0,780 Z"
         id="path20-5-6-2"
         inkscape:connector-curvature="0" />
    </clipPath>
    <clipPath
       clipPathUnits="userSpaceOnUse"
       id="clipPath18-8-9-4-6">
      <path
         d="M 0,780 1096,780 1096,0 0,0 0,780 Z"
         id="path20-5-6-2-4"
         inkscape:connector-curvature="0" />
    </clipPath>
    <clipPath
       id="clipPath10254"
       clipPathUnits="userSpaceOnUse">
      <circle
         r="233.26553"
         cy="-1233.8169"
         cx="890.74188"
         id="circle10256"
         style="color:#000000;clip-rule:nonzero;display:inline;overflow:visible;visibility:visible;opacity:1;isolation:auto;mix-blend-mode:normal;color-interpolation:sRGB;color-interpolation-filters:linearRGB;solid-color:#000000;solid-opacity:1;fill:#80b3ff;fill-opacity:1;fill-rule:evenodd;stroke:#000000;stroke-width:1.02317035px;stroke-linecap:butt;stroke-linejoin:miter;stroke-miterlimit:4;stroke-dasharray:none;stroke-dashoffset:0;stroke-opacity:1;color-rendering:auto;image-rendering:auto;shape-rendering:auto;text-rendering:auto;enable-background:accumulate" />
    </clipPath>
    <clipPath
       id="clipPath10254-2"
       clipPathUnits="userSpaceOnUse">
      <circle
         r="233.26553"
         cy="-1233.8169"
         cx="890.74188"
         id="circle10256-1"
         style="color:#000000;clip-rule:nonzero;display:inline;overflow:visible;visibility:visible;opacity:1;isolation:auto;mix-blend-mode:normal;color-interpolation:sRGB;color-interpolation-filters:linearRGB;solid-color:#000000;solid-opacity:1;fill:#80b3ff;fill-opacity:1;fill-rule:evenodd;stroke:#000000;stroke-width:1.02317035px;stroke-linecap:butt;stroke-linejoin:miter;stroke-miterlimit:4;stroke-dasharray:none;stroke-dashoffset:0;stroke-opacity:1;color-rendering:auto;image-rendering:auto;shape-rendering:auto;text-rendering:auto;enable-background:accumulate" />
    </clipPath>
    <clipPath
       id="clipPath10254-2-9"
       clipPathUnits="userSpaceOnUse">
      <circle
         r="233.26553"
         cy="-1233.8169"
         cx="890.74188"
         id="circle10256-1-9"
         style="color:#000000;clip-rule:nonzero;display:inline;overflow:visible;visibility:visible;opacity:1;isolation:auto;mix-blend-mode:normal;color-interpolation:sRGB;color-interpolation-filters:linearRGB;solid-color:#000000;solid-opacity:1;fill:#80b3ff;fill-opacity:1;fill-rule:evenodd;stroke:#000000;stroke-width:1.02317035px;stroke-linecap:butt;stroke-linejoin:miter;stroke-miterlimit:4;stroke-dasharray:none;stroke-dashoffset:0;stroke-opacity:1;color-rendering:auto;image-rendering:auto;shape-rendering:auto;text-rendering:auto;enable-background:accumulate" />
    </clipPath>
    <clipPath
       clipPathUnits="userSpaceOnUse"
       id="clipPath18-8-97">
      <path
         d="M 0,780 1096,780 1096,0 0,0 0,780 Z"
         id="path20-5-3"
         inkscape:connector-curvature="0" />
    </clipPath>
    <clipPath
       clipPathUnits="userSpaceOnUse"
       id="clipPath12000">
      <path
         d="M 0,980 1400,980 1400,0 0,0 0,980 Z"
         id="path12002"
         inkscape:connector-curvature="0" />
    </clipPath>
    <clipPath
       id="clipPath10254-0"
       clipPathUnits="userSpaceOnUse">
      <circle
         r="233.26553"
         cy="-1233.8169"
         cx="890.74188"
         id="circle10256-2"
         style="color:#000000;clip-rule:nonzero;display:inline;overflow:visible;visibility:visible;opacity:1;isolation:auto;mix-blend-mode:normal;color-interpolation:sRGB;color-interpolation-filters:linearRGB;solid-color:#000000;solid-opacity:1;fill:#80b3ff;fill-opacity:1;fill-rule:evenodd;stroke:#000000;stroke-width:1.02317035px;stroke-linecap:butt;stroke-linejoin:miter;stroke-miterlimit:4;stroke-dasharray:none;stroke-dashoffset:0;stroke-opacity:1;color-rendering:auto;image-rendering:auto;shape-rendering:auto;text-rendering:auto;enable-background:accumulate" />
    </clipPath>
    <clipPath
       id="clipPath10254-0-5"
       clipPathUnits="userSpaceOnUse">
      <circle
         r="233.26553"
         cy="-1233.8169"
         cx="890.74188"
         id="circle10256-2-9"
         style="color:#000000;clip-rule:nonzero;display:inline;overflow:visible;visibility:visible;opacity:1;isolation:auto;mix-blend-mode:normal;color-interpolation:sRGB;color-interpolation-filters:linearRGB;solid-color:#000000;solid-opacity:1;fill:#80b3ff;fill-opacity:1;fill-rule:evenodd;stroke:#000000;stroke-width:1.02317035px;stroke-linecap:butt;stroke-linejoin:miter;stroke-miterlimit:4;stroke-dasharray:none;stroke-dashoffset:0;stroke-opacity:1;color-rendering:auto;image-rendering:auto;shape-rendering:auto;text-rendering:auto;enable-background:accumulate" />
    </clipPath>
  </defs>
  <metadata
     id="metadata7">
    <rdf:RDF>
      <cc:Work
         rdf:about="">
        <dc:format>image/svg+xml</dc:format>
        <dc:type
           rdf:resource="http://purl.org/dc/dcmitype/StillImage" />
        <dc:title></dc:title>
      </cc:Work>
    </rdf:RDF>
  </metadata>
  <g
     transform="matrix(-0.70513456,0,0,-0.70436208,664.07715,5784.582)"
     id="layer1"
     style="fill:#87cef9;fill-opacity:1">
    <g
       style="fill:#87cef9;fill-opacity:1"
       transform="matrix(0.85189953,0,0,0.85189953,346.27441,7565.2792)"
       id="g39672">
      <g
         style="fill:#87cef9;fill-opacity:1"
         id="g39674">
        <path
           style="fill:#87cef9;fill-opacity:1"
           d="m 700,732.2 -667.8,0 0,9 c 8.5,0 12.7,4.1 17.2,8.5 4.8,4.7 9.8,9.5 19.9,9.5 10.1,0 15.1,-4.8 19.9,-9.5 4.5,-4.4 8.7,-8.5 17.2,-8.5 8.5,0 12.7,4.1 17.2,8.5 4.8,4.7 9.8,9.5 19.9,9.5 10.1,0 15.1,-4.8 19.9,-9.5 4.5,-4.4 8.7,-8.5 17.2,-8.5 8.5,0 12.7,4.1 17.2,8.5 4.8,4.7 9.8,9.5 19.9,9.5 10.1,0 15.1,-4.8 19.9,-9.5 4.5,-4.4 8.7,-8.5 17.2,-8.5 8.5,0 12.7,4.1 17.2,8.5 4.8,4.7 9.8,9.5 19.9,9.5 10.1,0 15.1,-4.8 19.9,-9.5 4.5,-4.4 8.8,-8.5 17.2,-8.5 8.4,0 12.7,4.1 17.2,8.5 4.8,4.7 9.8,9.5 19.9,9.5 10.1,0 15.1,-4.8 19.9,-9.5 4.5,-4.4 8.7,-8.5 17.2,-8.5 8.5,0 12.7,4.1 17.2,8.5 4.8,4.7 9.8,9.5 19.9,9.5 10.1,0 15.1,-4.8 19.9,-9.5 4.5,-4.4 8.8,-8.5 17.2,-8.5 8.5,0 12.7,4.1 17.2,8.5 4.8,4.7 9.8,9.5 19.9,9.5 10.1,0 15.1,-4.8 19.9,-9.5 4.5,-4.4 8.7,-8.5 17.2,-8.5 8.5,0 12.7,4.1 17.2,8.5 4.8,4.7 9.8,9.5 19.9,9.5 10.1,0 15.1,-4.8 19.9,-9.5 4.5,-4.4 8.8,-8.5 17.2,-8.5 8.5,0 12.7,4.1 17.2,8.5 4.8,4.7 9.8,9.5 19.9,9.5 10.1,0 15.1,-4.8 19.9,-9.5 4.3,-4.2 8.5,-8.1 16.3,-8.4 l 0,-9.1 z"
           id="path39676"
           inkscape:connector-curvature="0" />
      </g>
    </g>
  </g>
</svg>
